<svg width="35" height="35" viewBox="0 0 35 35" fill="none" xmlns="http://www.w3.org/2000/svg">
<path d="M7.65625 13.125V21.875C7.65625 22.1651 7.54102 22.4433 7.3359 22.6484C7.13078 22.8535 6.85258 22.9688 6.5625 22.9688C6.27242 22.9688 5.99422 22.8535 5.7891 22.6484C5.58398 22.4433 5.46875 22.1651 5.46875 21.875V13.125C5.46875 12.8349 5.58398 12.5567 5.7891 12.3516C5.99422 12.1465 6.27242 12.0312 6.5625 12.0312C6.85258 12.0312 7.13078 12.1465 7.3359 12.3516C7.54102 12.5567 7.65625 12.8349 7.65625 13.125ZM12.0312 3.28125C11.7412 3.28125 11.463 3.39648 11.2579 3.6016C11.0527 3.80672 10.9375 4.08492 10.9375 4.375V30.625C10.9375 30.9151 11.0527 31.1933 11.2579 31.3984C11.463 31.6035 11.7412 31.7188 12.0312 31.7188C12.3213 31.7188 12.5995 31.6035 12.8046 31.3984C13.0098 31.1933 13.125 30.9151 13.125 30.625V4.375C13.125 4.08492 13.0098 3.80672 12.8046 3.6016C12.5995 3.39648 12.3213 3.28125 12.0312 3.28125ZM17.5 7.65625C17.2099 7.65625 16.9317 7.77148 16.7266 7.9766C16.5215 8.18172 16.4062 8.45992 16.4062 8.75V26.25C16.4062 26.5401 16.5215 26.8183 16.7266 27.0234C16.9317 27.2285 17.2099 27.3438 17.5 27.3438C17.7901 27.3438 18.0683 27.2285 18.2734 27.0234C18.4785 26.8183 18.5938 26.5401 18.5938 26.25V8.75C18.5938 8.45992 18.4785 8.18172 18.2734 7.9766C18.0683 7.77148 17.7901 7.65625 17.5 7.65625ZM22.9688 12.0312C22.6787 12.0312 22.4005 12.1465 22.1954 12.3516C21.9902 12.5567 21.875 12.8349 21.875 13.125V21.875C21.875 22.1651 21.9902 22.4433 22.1954 22.6484C22.4005 22.8535 22.6787 22.9688 22.9688 22.9688C23.2588 22.9688 23.537 22.8535 23.7421 22.6484C23.9473 22.4433 24.0625 22.1651 24.0625 21.875V13.125C24.0625 12.8349 23.9473 12.5567 23.7421 12.3516C23.537 12.1465 23.2588 12.0312 22.9688 12.0312ZM28.4375 9.84375C28.1474 9.84375 27.8692 9.95898 27.6641 10.1641C27.459 10.3692 27.3438 10.6474 27.3438 10.9375V24.0625C27.3438 24.3526 27.459 24.6308 27.6641 24.8359C27.8692 25.041 28.1474 25.1562 28.4375 25.1562C28.7276 25.1562 29.0058 25.041 29.2109 24.8359C29.416 24.6308 29.5312 24.3526 29.5312 24.0625V10.9375C29.5312 10.6474 29.416 10.3692 29.2109 10.1641C29.0058 9.95898 28.7276 9.84375 28.4375 9.84375Z" fill="#60CEEC"/>
</svg>
