<svg width="36" height="24" viewBox="0 0 36 24" fill="none" xmlns="http://www.w3.org/2000/svg">
<rect x="1" y="0.5" width="34" height="23" rx="3.5" fill="white" stroke="#D9D9D9"/>
<path fill-rule="evenodd" clip-rule="evenodd" d="M8.8462 8.93296C9.31624 8.97261 9.78628 8.69506 10.0801 8.34316C10.3689 7.98135 10.5599 7.49563 10.5109 7C10.0947 7.01983 9.58064 7.27755 9.28686 7.63936C9.01757 7.95161 8.78745 8.45715 8.8462 8.93296ZM14.4377 15.3167V7.58981H17.3021C18.7807 7.58981 19.8138 8.62072 19.8138 10.1274C19.8138 11.6342 18.7611 12.675 17.2629 12.675H15.6226V15.3167H14.4377ZM10.506 9.02714C10.0919 9.00301 9.71406 9.1532 9.40886 9.27451C9.21246 9.35257 9.04614 9.41868 8.91961 9.41868C8.77762 9.41868 8.60444 9.34904 8.40999 9.27085C8.15521 9.16839 7.86392 9.05125 7.55845 9.05687C6.85829 9.06679 6.20709 9.46825 5.84966 10.1076C5.11522 11.3863 5.6587 13.2796 6.36866 14.3205C6.7163 14.8359 7.13248 15.4009 7.68086 15.3811C7.92211 15.3719 8.09566 15.2974 8.27526 15.2202C8.48203 15.1314 8.69683 15.0391 9.03223 15.0391C9.35599 15.0391 9.5614 15.129 9.75858 15.2152C9.94606 15.2973 10.1261 15.376 10.3934 15.3712C10.9614 15.3613 11.3188 14.8557 11.6664 14.3403C12.0416 13.7871 12.2064 13.2471 12.2314 13.1652L12.2344 13.1557C12.2338 13.1551 12.2291 13.153 12.221 13.1492C12.0956 13.0911 11.137 12.6469 11.1278 11.4557C11.1186 10.4559 11.8881 9.94937 12.0093 9.86963L12.0093 9.86962C12.0166 9.86477 12.0216 9.8615 12.0238 9.85979C11.5342 9.12626 10.7704 9.04696 10.506 9.02714ZM21.978 15.3761C22.7223 15.3761 23.4126 14.9945 23.726 14.3898H23.7505V15.3166H24.8472V11.4706C24.8472 10.3554 23.9659 9.63672 22.6096 9.63672C21.3513 9.63672 20.421 10.3653 20.3867 11.3665H21.4541C21.5423 10.8907 21.978 10.5784 22.5754 10.5784C23.3 10.5784 23.7064 10.9204 23.7064 11.5499V11.9761L22.2277 12.0653C20.8519 12.1496 20.1077 12.7195 20.1077 13.7108C20.1077 14.712 20.8764 15.3761 21.978 15.3761ZM22.2962 14.4592C21.6646 14.4592 21.2631 14.1519 21.2631 13.6811C21.2631 13.1954 21.6499 12.9129 22.3893 12.8683L23.7063 12.784V13.2202C23.7063 13.9438 23.0992 14.4592 22.2962 14.4592ZM28.4851 15.619C28.0102 16.9721 27.4667 17.4181 26.3112 17.4181C26.2231 17.4181 25.9293 17.4082 25.8607 17.3884V16.4616C25.9342 16.4715 26.1153 16.4814 26.2084 16.4814C26.7323 16.4814 27.026 16.2584 27.2072 15.6785L27.3149 15.3365L25.3075 9.71108H26.5462L27.9416 14.2758H27.9661L29.3616 9.71108H30.566L28.4851 15.619ZM15.6225 8.60087H16.9886C18.0168 8.60087 18.6044 9.15598 18.6044 10.1324C18.6044 11.1088 18.0168 11.6688 16.9837 11.6688H15.6225V8.60087Z" fill="black"/>
</svg>
