<svg width="23" height="30" viewBox="0 0 23 30" fill="none" xmlns="http://www.w3.org/2000/svg">
<path d="M22.3737 13.7711C22.3358 13.6108 22.259 13.4624 22.1499 13.339C22.0409 13.2156 21.9031 13.121 21.7487 13.0636L14.5474 10.3624L16.3799 1.19612C16.4214 0.98315 16.3925 0.762458 16.2976 0.567351C16.2027 0.372243 16.0468 0.213307 15.8537 0.114525C15.6605 0.0157439 15.4404 -0.017523 15.2266 0.0197449C15.0129 0.0570127 14.8171 0.162793 14.6687 0.321124L0.668694 15.3211C0.554987 15.4409 0.472731 15.5871 0.429273 15.7464C0.385815 15.9058 0.38251 16.0734 0.419652 16.2344C0.456794 16.3953 0.533227 16.5446 0.642122 16.6688C0.751017 16.793 0.888983 16.8883 1.04369 16.9461L8.24744 19.6474L6.41994 28.8036C6.37845 29.0166 6.40735 29.2373 6.50228 29.4324C6.59722 29.6275 6.75304 29.7864 6.94623 29.8852C7.13942 29.984 7.35949 30.0173 7.57325 29.98C7.787 29.9427 7.98283 29.837 8.13119 29.6786L22.1312 14.6786C22.2428 14.5588 22.3233 14.4134 22.3656 14.2551C22.4079 14.0969 22.4107 13.9307 22.3737 13.7711ZM9.07119 25.7499L10.3799 19.2024C10.4268 18.9702 10.3897 18.7289 10.2752 18.5215C10.1607 18.3141 9.97638 18.154 9.75494 18.0699L3.14994 15.5886L13.7274 4.25612L12.4199 10.8036C12.3731 11.0358 12.4102 11.2771 12.5247 11.4845C12.6391 11.6919 12.8235 11.852 13.0449 11.9361L19.6449 14.4111L9.07119 25.7499Z" fill="#036788"/>
</svg>
