<svg width="35" height="35" viewBox="0 0 35 35" fill="none" xmlns="http://www.w3.org/2000/svg">
<path d="M27.3438 7.65625H4.375C3.50476 7.65625 2.67016 8.00195 2.05481 8.61731C1.43945 9.23266 1.09375 10.0673 1.09375 10.9375V24.0625C1.09375 24.9327 1.43945 25.7673 2.05481 26.3827C2.67016 26.998 3.50476 27.3438 4.375 27.3438H27.3438C28.214 27.3438 29.0486 26.998 29.6639 26.3827C30.2793 25.7673 30.625 24.9327 30.625 24.0625V10.9375C30.625 10.0673 30.2793 9.23266 29.6639 8.61731C29.0486 8.00195 28.214 7.65625 27.3438 7.65625ZM28.4375 24.0625C28.4375 24.3526 28.3223 24.6308 28.1171 24.8359C27.912 25.041 27.6338 25.1562 27.3438 25.1562H4.375C4.08492 25.1562 3.80672 25.041 3.6016 24.8359C3.39648 24.6308 3.28125 24.3526 3.28125 24.0625V10.9375C3.28125 10.6474 3.39648 10.3692 3.6016 10.1641C3.80672 9.95898 4.08492 9.84375 4.375 9.84375H27.3438C27.6338 9.84375 27.912 9.95898 28.1171 10.1641C28.3223 10.3692 28.4375 10.6474 28.4375 10.9375V24.0625ZM35 13.125V21.875C35 22.1651 34.8848 22.4433 34.6796 22.6484C34.4745 22.8535 34.1963 22.9688 33.9062 22.9688C33.6162 22.9688 33.338 22.8535 33.1329 22.6484C32.9277 22.4433 32.8125 22.1651 32.8125 21.875V13.125C32.8125 12.8349 32.9277 12.5567 33.1329 12.3516C33.338 12.1465 33.6162 12.0312 33.9062 12.0312C34.1963 12.0312 34.4745 12.1465 34.6796 12.3516C34.8848 12.5567 35 12.8349 35 13.125ZM18.9779 16.9244C19.0761 17.0831 19.132 17.2643 19.1404 17.4507C19.1488 17.6371 19.1093 17.8226 19.0258 17.9895L16.8383 22.3645C16.774 22.493 16.685 22.6076 16.5765 22.7018C16.4679 22.796 16.3418 22.8678 16.2055 22.9133C16.0691 22.9587 15.9252 22.9769 15.7818 22.9667C15.6384 22.9565 15.4985 22.9182 15.3699 22.8539C15.2414 22.7896 15.1267 22.7007 15.0326 22.5921C14.9384 22.4835 14.8665 22.3574 14.8211 22.2211C14.7756 22.0847 14.7575 21.9408 14.7677 21.7974C14.7779 21.6541 14.8162 21.5141 14.8805 21.3855L16.2777 18.5938H13.6719C13.4853 18.5939 13.3019 18.5463 13.1389 18.4555C12.9759 18.3648 12.8389 18.2339 12.7408 18.0752C12.6427 17.9165 12.5868 17.7354 12.5784 17.5491C12.5701 17.3628 12.6095 17.1774 12.693 17.0105L14.8805 12.6355C14.9447 12.507 15.0337 12.3924 15.1423 12.2982C15.2509 12.204 15.3769 12.1322 15.5133 12.0867C15.6496 12.0413 15.7936 12.0231 15.937 12.0333C16.0803 12.0435 16.2203 12.0818 16.3488 12.1461C16.4774 12.2104 16.592 12.2993 16.6862 12.4079C16.7804 12.5165 16.8522 12.6426 16.8977 12.7789C16.9431 12.9153 16.9613 13.0592 16.9511 13.2026C16.9409 13.3459 16.9026 13.4859 16.8383 13.6145L15.441 16.4062H18.0469C18.2334 16.4061 18.4168 16.4536 18.5798 16.5443C18.7427 16.635 18.8798 16.7658 18.9779 16.9244Z" fill="#60CEEC"/>
</svg>
