<svg width="32" height="18" viewBox="0 0 32 18" fill="none" xmlns="http://www.w3.org/2000/svg">
<path d="M24.8 0H3.80005C3.0044 0 2.24134 0.316071 1.67873 0.87868C1.11612 1.44129 0.800049 2.20435 0.800049 3V15C0.800049 15.7956 1.11612 16.5587 1.67873 17.1213C2.24134 17.6839 3.0044 18 3.80005 18H24.8C25.5957 18 26.3588 17.6839 26.9214 17.1213C27.484 16.5587 27.8 15.7956 27.8 15V3C27.8 2.20435 27.484 1.44129 26.9214 0.87868C26.3588 0.316071 25.5957 0 24.8 0ZM25.8 15C25.8 15.2652 25.6947 15.5196 25.5072 15.7071C25.3196 15.8946 25.0653 16 24.8 16H3.80005C3.53483 16 3.28048 15.8946 3.09294 15.7071C2.90541 15.5196 2.80005 15.2652 2.80005 15V3C2.80005 2.73478 2.90541 2.48043 3.09294 2.29289C3.28048 2.10536 3.53483 2 3.80005 2H24.8C25.0653 2 25.3196 2.10536 25.5072 2.29289C25.6947 2.48043 25.8 2.73478 25.8 3V15ZM22.8 5V13C22.8 13.2652 22.6947 13.5196 22.5072 13.7071C22.3196 13.8946 22.0653 14 21.8 14C21.5348 14 21.2805 13.8946 21.0929 13.7071C20.9054 13.5196 20.8 13.2652 20.8 13V5C20.8 4.73478 20.9054 4.48043 21.0929 4.29289C21.2805 4.10536 21.5348 4 21.8 4C22.0653 4 22.3196 4.10536 22.5072 4.29289C22.6947 4.48043 22.8 4.73478 22.8 5ZM17.8 5V13C17.8 13.2652 17.6947 13.5196 17.5072 13.7071C17.3196 13.8946 17.0653 14 16.8 14C16.5348 14 16.2805 13.8946 16.0929 13.7071C15.9054 13.5196 15.8 13.2652 15.8 13V5C15.8 4.73478 15.9054 4.48043 16.0929 4.29289C16.2805 4.10536 16.5348 4 16.8 4C17.0653 4 17.3196 4.10536 17.5072 4.29289C17.6947 4.48043 17.8 4.73478 17.8 5ZM12.8 5V13C12.8 13.2652 12.6947 13.5196 12.5072 13.7071C12.3196 13.8946 12.0653 14 11.8 14C11.5348 14 11.2805 13.8946 11.0929 13.7071C10.9054 13.5196 10.8 13.2652 10.8 13V5C10.8 4.73478 10.9054 4.48043 11.0929 4.29289C11.2805 4.10536 11.5348 4 11.8 4C12.0653 4 12.3196 4.10536 12.5072 4.29289C12.6947 4.48043 12.8 4.73478 12.8 5ZM7.80005 5V13C7.80005 13.2652 7.69469 13.5196 7.50716 13.7071C7.31962 13.8946 7.06527 14 6.80005 14C6.53483 14 6.28048 13.8946 6.09294 13.7071C5.90541 13.5196 5.80005 13.2652 5.80005 13V5C5.80005 4.73478 5.90541 4.48043 6.09294 4.29289C6.28048 4.10536 6.53483 4 6.80005 4C7.06527 4 7.31962 4.10536 7.50716 4.29289C7.69469 4.48043 7.80005 4.73478 7.80005 5ZM31.8 5V13C31.8 13.2652 31.6947 13.5196 31.5072 13.7071C31.3196 13.8946 31.0653 14 30.8 14C30.5348 14 30.2805 13.8946 30.0929 13.7071C29.9054 13.5196 29.8 13.2652 29.8 13V5C29.8 4.73478 29.9054 4.48043 30.0929 4.29289C30.2805 4.10536 30.5348 4 30.8 4C31.0653 4 31.3196 4.10536 31.5072 4.29289C31.6947 4.48043 31.8 4.73478 31.8 5Z" fill="#036788"/>
</svg>
