<svg width="33" height="32" viewBox="0 0 33 32" fill="none" xmlns="http://www.w3.org/2000/svg">
<path opacity="0.2" d="M27.8 10V22C27.8 22.5304 27.5893 23.0391 27.2143 23.4142C26.8392 23.7893 26.3305 24 25.8 24H4.80005C4.26962 24 3.76091 23.7893 3.38584 23.4142C3.01076 23.0391 2.80005 22.5304 2.80005 22V10C2.80005 9.46957 3.01076 8.96086 3.38584 8.58579C3.76091 8.21071 4.26962 8 4.80005 8H25.8C26.3305 8 26.8392 8.21071 27.2143 8.58579C27.5893 8.96086 27.8 9.46957 27.8 10Z" fill="#036788"/>
<path d="M25.8 7H4.80005C4.0044 7 3.24134 7.31607 2.67873 7.87868C2.11612 8.44129 1.80005 9.20435 1.80005 10V22C1.80005 22.7956 2.11612 23.5587 2.67873 24.1213C3.24134 24.6839 4.0044 25 4.80005 25H25.8C26.5957 25 27.3588 24.6839 27.9214 24.1213C28.484 23.5587 28.8 22.7956 28.8 22V10C28.8 9.20435 28.484 8.44129 27.9214 7.87868C27.3588 7.31607 26.5957 7 25.8 7ZM26.8 22C26.8 22.2652 26.6947 22.5196 26.5072 22.7071C26.3196 22.8946 26.0653 23 25.8 23H4.80005C4.53483 23 4.28048 22.8946 4.09294 22.7071C3.90541 22.5196 3.80005 22.2652 3.80005 22V10C3.80005 9.73478 3.90541 9.48043 4.09294 9.29289C4.28048 9.10536 4.53483 9 4.80005 9H25.8C26.0653 9 26.3196 9.10536 26.5072 9.29289C26.6947 9.48043 26.8 9.73478 26.8 10V22ZM23.8 12V20C23.8 20.2652 23.6947 20.5196 23.5072 20.7071C23.3196 20.8946 23.0653 21 22.8 21C22.5348 21 22.2805 20.8946 22.0929 20.7071C21.9054 20.5196 21.8 20.2652 21.8 20V12C21.8 11.7348 21.9054 11.4804 22.0929 11.2929C22.2805 11.1054 22.5348 11 22.8 11C23.0653 11 23.3196 11.1054 23.5072 11.2929C23.6947 11.4804 23.8 11.7348 23.8 12ZM18.8 12V20C18.8 20.2652 18.6947 20.5196 18.5072 20.7071C18.3196 20.8946 18.0653 21 17.8 21C17.5348 21 17.2805 20.8946 17.0929 20.7071C16.9054 20.5196 16.8 20.2652 16.8 20V12C16.8 11.7348 16.9054 11.4804 17.0929 11.2929C17.2805 11.1054 17.5348 11 17.8 11C18.0653 11 18.3196 11.1054 18.5072 11.2929C18.6947 11.4804 18.8 11.7348 18.8 12ZM13.8 12V20C13.8 20.2652 13.6947 20.5196 13.5072 20.7071C13.3196 20.8946 13.0653 21 12.8 21C12.5348 21 12.2805 20.8946 12.0929 20.7071C11.9054 20.5196 11.8 20.2652 11.8 20V12C11.8 11.7348 11.9054 11.4804 12.0929 11.2929C12.2805 11.1054 12.5348 11 12.8 11C13.0653 11 13.3196 11.1054 13.5072 11.2929C13.6947 11.4804 13.8 11.7348 13.8 12ZM8.80005 12V20C8.80005 20.2652 8.69469 20.5196 8.50716 20.7071C8.31962 20.8946 8.06527 21 7.80005 21C7.53483 21 7.28048 20.8946 7.09294 20.7071C6.90541 20.5196 6.80005 20.2652 6.80005 20V12C6.80005 11.7348 6.90541 11.4804 7.09294 11.2929C7.28048 11.1054 7.53483 11 7.80005 11C8.06527 11 8.31962 11.1054 8.50716 11.2929C8.69469 11.4804 8.80005 11.7348 8.80005 12ZM32.8 12V20C32.8 20.2652 32.6947 20.5196 32.5072 20.7071C32.3196 20.8946 32.0653 21 31.8 21C31.5348 21 31.2805 20.8946 31.0929 20.7071C30.9054 20.5196 30.8 20.2652 30.8 20V12C30.8 11.7348 30.9054 11.4804 31.0929 11.2929C31.2805 11.1054 31.5348 11 31.8 11C32.0653 11 32.3196 11.1054 32.5072 11.2929C32.6947 11.4804 32.8 11.7348 32.8 12Z" fill="#036788"/>
</svg>
