<svg width="16" height="16" viewBox="0 0 16 16" fill="none" xmlns="http://www.w3.org/2000/svg">
<path d="M15.2081 5.68169L7.18249 13.7067C7.08962 13.7996 6.97937 13.8733 6.85803 13.9235C6.73669 13.9738 6.60664 13.9997 6.4753 13.9997C6.34396 13.9997 6.2139 13.9738 6.09256 13.9235C5.97122 13.8733 5.86097 13.7996 5.76811 13.7067L1.29186 9.20669C1.10466 9.0192 0.999512 8.76508 0.999512 8.50013C0.999512 8.23518 1.10466 7.98105 1.29186 7.79356L2.79186 6.29356C2.97875 6.10662 3.23206 6.00129 3.4964 6.00058C3.76074 5.99988 4.0146 6.10387 4.20249 6.28981L6.49249 8.49419L6.49936 8.50106L12.295 2.79044C12.4824 2.60381 12.7361 2.49902 13.0006 2.49902C13.2651 2.49902 13.5188 2.60381 13.7062 2.79044L15.2062 4.26294C15.2999 4.35576 15.3743 4.46618 15.4251 4.58786C15.4759 4.70953 15.5022 4.84006 15.5023 4.97192C15.5025 5.10379 15.4766 5.23438 15.4261 5.35619C15.3756 5.478 15.3015 5.58862 15.2081 5.68169Z" fill="#60CEEC"/>
</svg>
