<svg width="33" height="32" viewBox="0 0 33 32" fill="none" xmlns="http://www.w3.org/2000/svg">
<path opacity="0.2" d="M16.6 14C15.71 14 14.8399 13.7361 14.0999 13.2416C13.3599 12.7471 12.7831 12.0443 12.4425 11.2221C12.1019 10.3998 12.0128 9.49501 12.1864 8.6221C12.3601 7.74918 12.7887 6.94736 13.418 6.31802C14.0473 5.68868 14.8492 5.2601 15.7221 5.08647C16.595 4.91283 17.4998 5.00195 18.3221 5.34254C19.1443 5.68314 19.8471 6.25991 20.3416 6.99994C20.8361 7.73996 21.1 8.60999 21.1 9.5C21.1 10.6935 20.6259 11.8381 19.782 12.682C18.938 13.5259 17.7935 14 16.6 14ZM24.1 17C23.21 17 22.3399 17.2639 21.5999 17.7584C20.8599 18.2529 20.2831 18.9557 19.9425 19.7779C19.6019 20.6002 19.5128 21.505 19.6864 22.3779C19.8601 23.2508 20.2887 24.0526 20.918 24.682C21.5473 25.3113 22.3492 25.7399 23.2221 25.9135C24.095 26.0872 24.9998 25.9981 25.8221 25.6575C26.6443 25.3169 27.3471 24.7401 27.8416 24.0001C28.3361 23.26 28.6 22.39 28.6 21.5C28.6 20.3065 28.1259 19.1619 27.282 18.318C26.438 17.4741 25.2935 17 24.1 17ZM9.09998 17C8.20996 17 7.33993 17.2639 6.59991 17.7584C5.85989 18.2529 5.28311 18.9557 4.94252 19.7779C4.60193 20.6002 4.51281 21.505 4.68644 22.3779C4.86008 23.2508 5.28866 24.0526 5.918 24.682C6.54733 25.3113 7.34916 25.7399 8.22207 25.9135C9.09499 26.0872 9.99979 25.9981 10.8221 25.6575C11.6443 25.3169 12.3471 24.7401 12.8416 24.0001C13.3361 23.26 13.6 22.39 13.6 21.5C13.6 20.3065 13.1259 19.1619 12.282 18.318C11.438 17.4741 10.2935 17 9.09998 17Z" fill="#036788"/>
<path d="M22.1 9.5C22.1 8.41221 21.7774 7.34884 21.1731 6.44437C20.5687 5.5399 19.7097 4.83495 18.7047 4.41867C17.6997 4.00238 16.5939 3.89346 15.527 4.10568C14.4601 4.3179 13.4801 4.84173 12.7109 5.61092C11.9417 6.3801 11.4179 7.36011 11.2057 8.42701C10.9934 9.4939 11.1024 10.5998 11.5186 11.6048C11.9349 12.6098 12.6399 13.4687 13.5443 14.0731C14.4488 14.6774 15.5122 15 16.6 15C18.0582 14.9983 19.4561 14.4184 20.4872 13.3873C21.5183 12.3562 22.0983 10.9582 22.1 9.5ZM16.6 13C15.9077 13 15.2311 12.7947 14.6555 12.4101C14.0799 12.0256 13.6313 11.4789 13.3664 10.8394C13.1015 10.1999 13.0322 9.49612 13.1672 8.81719C13.3023 8.13825 13.6356 7.51461 14.1251 7.02513C14.6146 6.53565 15.2382 6.2023 15.9172 6.06725C16.5961 5.93221 17.2998 6.00152 17.9394 6.26642C18.5789 6.53133 19.1255 6.97993 19.5101 7.55551C19.8947 8.13108 20.1 8.80777 20.1 9.5C20.1 10.4283 19.7312 11.3185 19.0749 11.9749C18.4185 12.6313 17.5282 13 16.6 13ZM24.1 16C23.0122 16 21.9488 16.3226 21.0443 16.9269C20.1399 17.5313 19.4349 18.3903 19.0186 19.3952C18.6024 20.4002 18.4934 21.5061 18.7057 22.573C18.9179 23.6399 19.4417 24.6199 20.2109 25.3891C20.9801 26.1583 21.9601 26.6821 23.027 26.8943C24.0939 27.1065 25.1997 26.9976 26.2047 26.5813C27.2097 26.1651 28.0687 25.4601 28.6731 24.5556C29.2774 23.6512 29.6 22.5878 29.6 21.5C29.5983 20.0418 29.0183 18.6438 27.9872 17.6127C26.9561 16.5817 25.5582 16.0017 24.1 16ZM24.1 25C23.4077 25 22.7311 24.7947 22.1555 24.4101C21.5799 24.0256 21.1313 23.4789 20.8664 22.8394C20.6015 22.1999 20.5322 21.4961 20.6672 20.8172C20.8023 20.1383 21.1356 19.5146 21.6251 19.0251C22.1146 18.5356 22.7382 18.2023 23.4172 18.0673C24.0961 17.9322 24.7998 18.0015 25.4394 18.2664C26.0789 18.5313 26.6255 18.9799 27.0101 19.5555C27.3947 20.1311 27.6 20.8078 27.6 21.5C27.6 22.4283 27.2312 23.3185 26.5749 23.9749C25.9185 24.6313 25.0282 25 24.1 25ZM9.09998 16C8.01218 16 6.94881 16.3226 6.04434 16.9269C5.13987 17.5313 4.43492 18.3903 4.01864 19.3952C3.60236 20.4002 3.49344 21.5061 3.70566 22.573C3.91788 23.6399 4.4417 24.6199 5.21089 25.3891C5.98008 26.1583 6.96009 26.6821 8.02698 26.8943C9.09388 27.1065 10.1997 26.9976 11.2047 26.5813C12.2097 26.1651 13.0687 25.4601 13.6731 24.5556C14.2774 23.6512 14.6 22.5878 14.6 21.5C14.5983 20.0418 14.0183 18.6438 12.9872 17.6127C11.9561 16.5817 10.5582 16.0017 9.09998 16ZM9.09998 25C8.40774 25 7.73105 24.7947 7.15548 24.4101C6.57991 24.0256 6.13131 23.4789 5.8664 22.8394C5.60149 22.1999 5.53218 21.4961 5.66723 20.8172C5.80228 20.1383 6.13562 19.5146 6.6251 19.0251C7.11459 18.5356 7.73823 18.2023 8.41716 18.0673C9.0961 17.9322 9.79983 18.0015 10.4394 18.2664C11.0789 18.5313 11.6255 18.9799 12.0101 19.5555C12.3947 20.1311 12.6 20.8078 12.6 21.5C12.6 22.4283 12.2312 23.3185 11.5749 23.9749C10.9185 24.6313 10.0282 25 9.09998 25Z" fill="#036788"/>
</svg>
