<svg width="33" height="32" viewBox="0 0 33 32" fill="none" xmlns="http://www.w3.org/2000/svg">
<path opacity="0.2" d="M26.2 13C26.2 18 24.395 22 20.2 27C19.1912 28.2213 17.9075 29 16.2 29C14.7413 29 13.3423 28.4205 12.3109 27.3891C11.2794 26.3576 10.7 24.9587 10.7 23.5C10.7 18.3137 6.19995 20 6.19995 13C6.19995 10.3478 7.25352 7.8043 9.12888 5.92893C11.0042 4.05357 13.5478 3 16.2 3C18.8521 3 21.3957 4.05357 23.271 5.92893C25.1464 7.8043 26.2 10.3478 26.2 13Z" fill="#036788"/>
<path d="M27.2 13C27.2 13.2652 27.0946 13.5196 26.9071 13.7071C26.7195 13.8946 26.4652 14 26.2 14C25.9347 14 25.6804 13.8946 25.4928 13.7071C25.3053 13.5196 25.2 13.2652 25.2 13C25.2 10.6131 24.2517 8.32387 22.5639 6.63604C20.8761 4.94821 18.5869 4 16.2 4C13.813 4 11.5238 4.94821 9.83599 6.63604C8.14816 8.32387 7.19995 10.6131 7.19995 13C7.19995 16.3375 8.2662 17.365 9.3962 18.455C10.4762 19.5 11.7 20.6763 11.7 23.5C11.7 24.6935 12.1741 25.8381 13.018 26.682C13.8619 27.5259 15.0065 28 16.2 28C17.48 28 18.5062 27.48 19.4287 26.3638C19.5113 26.2596 19.6139 26.173 19.7304 26.109C19.8468 26.045 19.9749 26.0048 20.1071 25.9909C20.2393 25.9769 20.3729 25.9895 20.5002 26.0278C20.6275 26.0661 20.7458 26.1294 20.8484 26.214C20.9509 26.2986 21.0355 26.4027 21.0973 26.5204C21.1591 26.6381 21.1969 26.7669 21.2083 26.8993C21.2197 27.0318 21.2047 27.1651 21.164 27.2917C21.1232 27.4182 21.0577 27.5353 20.9712 27.6362C19.6762 29.205 18.075 30 16.2 30C14.4767 29.998 12.8245 29.3126 11.6059 28.094C10.3874 26.8754 9.70194 25.2233 9.69995 23.5C9.69995 21.5263 8.98995 20.8413 8.00745 19.895C6.75745 18.6875 5.19995 17.1875 5.19995 13C5.19995 10.0826 6.35888 7.28473 8.42178 5.22183C10.4847 3.15893 13.2826 2 16.2 2C19.1173 2 21.9152 3.15893 23.9781 5.22183C26.041 7.28473 27.2 10.0826 27.2 13ZM22.4337 20.135C22.32 20.0691 22.1944 20.0262 22.064 20.0089C21.9337 19.9915 21.8013 20.0001 21.6743 20.034C21.5473 20.0679 21.4282 20.1265 21.3238 20.2064C21.2195 20.2864 21.1319 20.3862 21.0662 20.5C20.9562 20.6908 20.7863 20.8399 20.5829 20.9242C20.3794 21.0085 20.1539 21.0233 19.9412 20.9663C19.7285 20.9093 19.5405 20.7837 19.4065 20.609C19.2725 20.4343 19.1999 20.2202 19.2 20C19.2 18.8337 19.8025 18.03 20.5 17.1C21.2962 16.0375 22.2 14.8337 22.2 13C22.2 11.4087 21.5678 9.88258 20.4426 8.75736C19.3174 7.63214 17.7913 7 16.2 7C14.6087 7 13.0825 7.63214 11.9573 8.75736C10.8321 9.88258 10.2 11.4087 10.2 13C10.2 13.2652 10.3053 13.5196 10.4928 13.7071C10.6804 13.8946 10.9347 14 11.2 14C11.4652 14 11.7195 13.8946 11.9071 13.7071C12.0946 13.5196 12.2 13.2652 12.2 13C12.2 11.9391 12.6214 10.9217 13.3715 10.1716C14.1217 9.42143 15.1391 9 16.2 9C17.2608 9 18.2782 9.42143 19.0284 10.1716C19.7785 10.9217 20.2 11.9391 20.2 13C20.2 14.1663 19.5975 14.97 18.9 15.9C18.1037 16.9625 17.2 18.1663 17.2 20C17.2002 20.6602 17.4182 21.3019 17.8202 21.8257C18.2222 22.3494 18.7857 22.7259 19.4234 22.8968C20.0611 23.0677 20.7374 23.0234 21.3474 22.7709C21.9574 22.5183 22.4671 22.0716 22.7975 21.5C22.9299 21.2707 22.966 20.9982 22.8978 20.7423C22.8296 20.4864 22.6627 20.268 22.4337 20.135Z" fill="#036788"/>
</svg>
