<svg width="35" height="35" viewBox="0 0 35 35" fill="none" xmlns="http://www.w3.org/2000/svg">
<path d="M29.2469 28.7956C29.3455 28.9015 29.4221 29.026 29.4723 29.1618C29.5225 29.2975 29.5452 29.4419 29.5391 29.5865C29.5331 29.7311 29.4984 29.8731 29.4371 30.0042C29.3758 30.1353 29.2891 30.2529 29.182 30.3503C29.0748 30.4476 28.9495 30.5227 28.8131 30.5713C28.6768 30.6198 28.5321 30.6408 28.3876 30.633C28.2431 30.6252 28.1015 30.5889 27.9712 30.526C27.8408 30.4631 27.7242 30.375 27.6282 30.2667L22.843 25.0098C22.3521 25.1614 21.8326 25.1956 21.3261 25.1096C20.8196 25.0237 20.3404 24.82 19.927 24.515C19.5136 24.21 19.1776 23.8123 18.946 23.3537C18.7145 22.8951 18.5938 22.3886 18.5938 21.8749C18.5923 21.4141 18.6478 20.9549 18.7592 20.5077L13.125 14.3089C13.1131 14.599 12.9864 14.8724 12.7728 15.0691C12.5592 15.2657 12.2762 15.3695 11.9862 15.3575C11.6961 15.3455 11.4226 15.2188 11.226 15.0052C11.0293 14.7917 10.9256 14.5087 10.9375 14.2186C10.9367 13.548 11.0391 12.8812 11.241 12.2417L8.81839 9.5702C8.05123 10.9992 7.65185 12.5967 7.65628 14.2186C7.65628 17.869 8.82249 18.9929 10.0584 20.185C11.2397 21.328 12.5782 22.6145 12.5782 25.703C12.5782 27.0084 13.0967 28.2603 14.0197 29.1833C14.9428 30.1063 16.1947 30.6249 17.5 30.6249C18.9 30.6249 20.0225 30.0561 21.0315 28.8352C21.1218 28.7214 21.234 28.6266 21.3614 28.5566C21.4888 28.4866 21.6289 28.4427 21.7735 28.4274C21.9181 28.4122 22.0642 28.4259 22.2034 28.4678C22.3426 28.5097 22.4721 28.5789 22.5842 28.6714C22.6964 28.7639 22.789 28.8779 22.8566 29.0066C22.9242 29.1353 22.9654 29.2762 22.9779 29.421C22.9904 29.5659 22.9739 29.7118 22.9294 29.8501C22.8849 29.9885 22.8132 30.1167 22.7186 30.227C21.3022 31.9429 19.5508 32.8124 17.5 32.8124C15.6152 32.8102 13.8081 32.0605 12.4753 30.7277C11.1425 29.3949 10.3928 27.5879 10.3907 25.703C10.3907 23.5442 9.61409 22.795 8.53948 21.76C7.1723 20.4393 5.46878 18.7987 5.46878 14.2186C5.46319 11.9773 6.08911 9.77967 7.27484 7.87762L5.75316 6.20418C5.65454 6.09824 5.57792 5.97378 5.52776 5.83802C5.47759 5.70225 5.45487 5.55788 5.46091 5.41327C5.46696 5.26866 5.50164 5.12669 5.56296 4.99558C5.62427 4.86447 5.711 4.74684 5.81811 4.6495C5.92522 4.55215 6.05059 4.47704 6.18695 4.4285C6.32331 4.37997 6.46794 4.35898 6.61247 4.36676C6.757 4.37453 6.89854 4.41092 7.02891 4.4738C7.15927 4.53668 7.27585 4.62481 7.37191 4.73309L29.2469 28.7956ZM12.4537 5.76531C13.948 4.87317 15.652 4.39311 17.3922 4.37404C19.1324 4.35497 20.8465 4.79759 22.3599 5.65678C23.8733 6.51597 25.1319 7.76101 26.0074 9.26505C26.8829 10.7691 27.344 12.4783 27.3438 14.2186C27.3438 14.5087 27.459 14.7869 27.6641 14.992C27.8692 15.1972 28.1475 15.3124 28.4375 15.3124C28.7276 15.3124 29.0058 15.1972 29.2109 14.992C29.416 14.7869 29.5313 14.5087 29.5313 14.2186C29.5316 12.0914 28.9679 10.002 27.8976 8.16361C26.8273 6.32519 25.2888 4.80341 23.4387 3.75338C21.5886 2.70335 19.4933 2.16261 17.3661 2.18629C15.239 2.20997 13.1561 2.79721 11.3299 3.88817C11.081 4.03719 10.9015 4.279 10.8308 4.5604C10.7602 4.8418 10.8042 5.13973 10.9533 5.38865C11.1023 5.63758 11.3441 5.81711 11.6255 5.88775C11.9069 5.95838 12.2048 5.91434 12.4537 5.76531ZM21.9188 17.3864C22.0464 17.4523 22.1858 17.4924 22.329 17.5045C22.4721 17.5165 22.6163 17.5002 22.7531 17.4566C22.89 17.4129 23.0169 17.3427 23.1266 17.2499C23.2364 17.1572 23.3267 17.0438 23.3926 16.9161C23.8338 16.0855 24.0639 15.1591 24.0625 14.2186C24.0629 13.1738 23.8137 12.1441 23.3359 11.215C22.858 10.2859 22.1652 9.48429 21.3151 8.87691C20.465 8.26952 19.4822 7.87389 18.4484 7.72291C17.4145 7.57193 16.3596 7.66997 15.3713 8.00887C15.0968 8.10296 14.871 8.30224 14.7434 8.56287C14.6158 8.8235 14.597 9.12413 14.6911 9.39861C14.7852 9.6731 14.9845 9.89897 15.2451 10.0265C15.5058 10.1541 15.8064 10.1729 16.0809 10.0788C16.7398 9.85286 17.443 9.7875 18.1323 9.88815C18.8215 9.9888 19.4767 10.2526 20.0434 10.6575C20.6102 11.0624 21.072 11.5968 21.3906 12.2162C21.7092 12.8356 21.8753 13.5221 21.875 14.2186C21.8748 14.8077 21.7282 15.3874 21.4485 15.9057C21.3826 16.0334 21.3424 16.1728 21.3304 16.3159C21.3184 16.4591 21.3346 16.6032 21.3783 16.7401C21.422 16.8769 21.4922 17.0039 21.5849 17.1136C21.6777 17.2233 21.7911 17.3137 21.9188 17.3796V17.3864Z" fill="#60CEEC"/>
</svg>
