<svg width="83" height="32" viewBox="0 0 83 32" fill="none" xmlns="http://www.w3.org/2000/svg">
<g clip-path="url(#clip0_55_540)">
<mask id="mask0_55_540" style="mask-type:luminance" maskUnits="userSpaceOnUse" x="0" y="0" width="83" height="32">
<path d="M82.9997 0H0.525391V32H82.9997V0Z" fill="white"/>
</mask>
<g mask="url(#mask0_55_540)">
<path d="M0.525391 0.0078125H82.9997V31.993H0.525391V0.0078125Z" fill="#231F20"/>
<path d="M48.8009 11.2865C47.7637 11.2865 46.9491 11.509 46.134 11.9531C46.134 9.58232 46.134 7.434 46.2084 6.69336L41.2439 7.58204V8.0266L41.7625 8.10062C42.4286 8.24866 42.652 8.61876 42.7988 9.5083C42.9481 11.2865 42.8732 20.7702 42.7988 22.3263C44.1324 22.6228 45.5405 22.8453 46.9486 22.8453C50.8756 22.8453 53.2464 20.4001 53.2464 16.5471C53.2464 13.5097 51.3201 11.2865 48.8009 11.2865ZM47.0967 22.0298C46.8002 22.0298 46.4292 22.0298 46.2076 21.9562C46.1331 20.9191 46.0595 16.5471 46.1331 12.6946C46.5777 12.5461 46.8738 12.4721 47.2447 12.4721C48.8757 12.4721 49.7649 14.3984 49.7649 16.7688C49.7644 19.7334 48.6528 22.0298 47.0967 22.0298ZM22.5718 6.98945H9.53125V7.65606L10.2723 7.73008C11.235 7.87813 11.606 8.47072 11.7536 9.8784C11.9765 12.5457 11.9021 17.3622 11.7536 19.6581C11.6055 21.0662 11.2354 21.7333 10.2723 21.8064L9.53125 21.9553V22.5479H17.9037V21.9553L17.0146 21.8064C16.0515 21.7329 15.681 21.0662 15.5329 19.6581C15.4585 18.6946 15.3845 17.1384 15.3845 15.2126L17.1627 15.2866C18.2743 15.2866 18.7924 16.1757 19.0149 17.4349H19.682V12.176H19.0149C18.792 13.4357 18.2743 14.3243 17.1627 14.3243L15.3849 14.3988C15.3849 11.8795 15.4589 9.50872 15.5334 8.10104H18.1262C20.1274 8.10104 21.1645 9.36026 21.9052 11.5834L22.6462 11.3609L22.5718 6.98945Z" fill="white"/>
<path d="M26.7929 11.138C30.4978 11.138 32.35 13.6573 32.35 16.9913C32.35 20.1771 30.2753 22.8453 26.5704 22.8453C22.8659 22.8453 21.0137 20.3256 21.0137 16.9913C21.0137 13.8054 23.088 11.138 26.7929 11.138ZM26.5704 11.8791C24.9402 11.8791 24.4957 14.1019 24.4957 16.9913C24.4957 19.8066 25.2367 22.1034 26.7188 22.1034C28.4218 22.1034 28.8672 19.8806 28.8672 16.9913C28.8672 14.1759 28.127 11.8791 26.5704 11.8791ZM54.2067 17.0657C54.2067 14.0279 56.133 11.138 59.9119 11.138C63.0229 11.138 64.5055 13.4353 64.5055 16.4727H57.6147C57.5402 19.214 58.8739 21.2147 61.5416 21.2147C62.7273 21.2147 63.3199 20.9191 64.0614 20.4001L64.357 20.7702C63.6159 21.8073 61.9862 22.8453 59.9119 22.8453C56.5775 22.8449 54.2067 20.4741 54.2067 17.0657ZM57.6147 15.658L61.0971 15.5836C61.0971 14.1019 60.8746 11.8791 59.6154 11.8791C58.3562 11.8791 57.6883 13.9534 57.6147 15.658ZM73.3238 11.7311C72.4347 11.3601 71.2495 11.138 69.9159 11.138C67.1749 11.138 65.4699 12.7678 65.4699 14.6945C65.4699 16.6212 66.7282 17.4358 68.5086 18.0288C70.3604 18.695 70.8794 19.214 70.8794 20.1031C70.8794 20.9922 70.2124 21.8069 69.0267 21.8069C67.6195 21.8069 66.5815 20.9922 65.7668 18.769L65.2478 18.9179L65.3223 22.1779C66.2114 22.548 67.8411 22.8449 69.2492 22.8449C72.139 22.8449 73.9917 21.3623 73.9917 19.066C73.9917 17.5098 73.1762 16.6212 71.2499 15.8797C69.1748 15.065 68.4346 14.5464 68.4346 13.5829C68.4346 12.6197 69.1025 11.9527 69.9916 11.9527C71.3244 11.9527 72.2135 12.7678 72.8814 14.7685L73.3995 14.6204L73.3238 11.7311ZM41.9817 11.4346C40.7225 10.6943 38.4993 11.064 37.3141 13.7318L37.3877 11.1385L32.424 12.1016V12.5462L32.9426 12.6202C33.6101 12.6946 33.9057 13.0647 33.9802 14.0283C34.1282 15.8065 34.0542 18.9188 33.9802 20.4745C33.9057 21.3628 33.6101 21.8073 32.9426 21.8818L32.424 21.9562V22.5488H39.3144V21.9562L38.4253 21.8818C37.6846 21.8073 37.4622 21.3628 37.3877 20.4745C37.2397 19.0664 37.2397 16.251 37.3141 14.4728C37.6842 13.9538 39.3144 13.5097 40.7961 14.4728L41.9817 11.4346Z" fill="white"/>
</g>
</g>
<defs>
<clipPath id="clip0_55_540">
<rect width="83" height="32" fill="white"/>
</clipPath>
</defs>
</svg>
