<svg width="36" height="24" viewBox="0 0 36 24" fill="none" xmlns="http://www.w3.org/2000/svg">
<rect x="1" y="0.5" width="34" height="23" rx="3.5" fill="white" stroke="#D9D9D9"/>
<path fill-rule="evenodd" clip-rule="evenodd" d="M17.0301 15.7585V12.7375H18.5893C19.2282 12.7375 19.7675 12.5234 20.2071 12.1012L20.3126 11.9942C21.1156 11.12 21.0629 9.75817 20.2071 8.94941C19.7792 8.52125 19.1931 8.28932 18.5893 8.30122H16.0864V15.7585H17.0301ZM17.0303 11.8217V9.21703H18.6131C18.9531 9.21703 19.2756 9.34786 19.5159 9.58573C20.026 10.0853 20.0377 10.9178 19.5453 11.4352C19.3049 11.6909 18.9649 11.8336 18.6131 11.8217H17.0303ZM24.7147 11.0546C24.3102 10.6799 23.7592 10.4896 23.0617 10.4896C22.1649 10.4896 21.4908 10.8227 21.0453 11.4827L21.8777 12.012C22.1825 11.5601 22.5987 11.3341 23.1262 11.3341C23.4603 11.3341 23.7827 11.459 24.0347 11.6849C24.2809 11.899 24.4216 12.2083 24.4216 12.5353V12.7554C24.0582 12.5532 23.601 12.4461 23.0383 12.4461C22.3818 12.4461 21.8542 12.6007 21.4615 12.9159C21.0688 13.2311 20.8695 13.6474 20.8695 14.1766C20.8578 14.6583 21.0629 15.1162 21.4263 15.4254C21.7956 15.7585 22.2645 15.925 22.8155 15.925C23.4662 15.925 23.982 15.6336 24.3747 15.0508H24.4157V15.7585H25.3184V12.6126C25.3184 11.9525 25.1191 11.4292 24.7147 11.0546ZM22.1533 14.8189C21.9599 14.6761 21.8426 14.4442 21.8426 14.1944C21.8426 13.9149 21.9716 13.683 22.2237 13.4987C22.4816 13.3143 22.8041 13.2192 23.1851 13.2192C23.7128 13.2132 24.1231 13.3322 24.4163 13.57C24.4163 13.9744 24.258 14.3253 23.9473 14.6226C23.6659 14.9081 23.2848 15.0686 22.8862 15.0686C22.6223 15.0746 22.3644 14.9854 22.1533 14.8189ZM27.3465 18.0004L30.5 10.6562H29.4743L28.0147 14.3194H27.9972L26.5025 10.6562H25.4767L27.5458 15.4314L26.3735 18.0004H27.3465Z" fill="#3C4043"/>
<path d="M13.772 12.0831C13.772 11.7917 13.7486 11.5003 13.7017 11.2148H9.72168V12.8621H12.0018C11.908 13.3914 11.6032 13.8671 11.1578 14.1644V15.2349H12.5176C13.3148 14.4915 13.772 13.3914 13.772 12.0831Z" fill="#4285F4"/>
<path d="M9.72186 16.2696C10.859 16.2696 11.8203 15.889 12.5178 15.2349L11.1579 14.1645C10.7769 14.4261 10.2904 14.5748 9.72186 14.5748C8.61989 14.5748 7.6879 13.8195 7.35379 12.8086H5.95288V13.9147C6.66799 15.3598 8.12752 16.2696 9.72186 16.2696Z" fill="#34A853"/>
<path d="M7.35401 12.8088C7.17814 12.2796 7.17814 11.7027 7.35401 11.1675V10.0674H5.95288C5.34904 11.2746 5.34904 12.7018 5.95288 13.909L7.35401 12.8088Z" fill="#FBBC04"/>
<path d="M9.72186 9.40114C10.3256 9.38925 10.9059 9.62117 11.3397 10.0434L12.5471 8.81836C11.7793 8.09285 10.7711 7.69442 9.72186 7.70631C8.12752 7.70631 6.66799 8.62211 5.95288 10.0672L7.35379 11.1733C7.6879 10.1564 8.61989 9.40114 9.72186 9.40114Z" fill="#EA4335"/>
</svg>
