<svg width="92" height="30" viewBox="0 0 92 30" fill="none" xmlns="http://www.w3.org/2000/svg">
<g clip-path="url(#clip0_55_534)">
<mask id="mask0_55_534" style="mask-type:luminance" maskUnits="userSpaceOnUse" x="0" y="0" width="92" height="30">
<path d="M91.5251 0H0.454102V30H91.5251V0Z" fill="white"/>
</mask>
<g mask="url(#mask0_55_534)">
<path d="M21.1465 15.9925L22.7355 15.169V2.65311H21.5341L18.6003 6.55315H18.2709L18.4569 2.16755H31.1764L31.3624 6.55704H31.0097L28.1341 2.657H26.8978V15.1379L28.4945 15.9847V16.4081H21.1465V15.9925ZM32.5987 15.4409V1.57711L31.3624 1.07989V0.823514L35.8193 0H36.3076V6.58034L36.4122 6.47546C37.478 5.56649 38.8305 5.0615 40.2335 5.05374C42.1867 5.05374 43.0471 6.16082 43.0471 8.21572V15.437L44.0896 16.008V16.4042H38.2608V16.008L39.3072 15.437V8.19241C39.3072 7.05814 38.8112 6.60754 37.8888 6.60754C37.3307 6.59588 36.7843 6.77457 36.3463 7.11641V15.4603L37.3733 16.0313V16.4081H31.5446V16.0313L32.5987 15.4409ZM47.2598 11.1835C47.38 13.4753 48.407 15.2467 50.833 15.2467C52.0073 15.2467 52.8406 14.7028 53.6118 14.2872V14.7378C52.5615 16.0236 50.9842 16.7577 49.3255 16.7383C45.5623 16.7383 43.6439 14.6407 43.6439 11.0126C43.6439 7.46601 45.7484 5.25573 49.1433 5.25573C52.3406 5.25573 53.9994 6.85614 53.9994 11.0747V11.1835H47.2598ZM47.1978 10.6513L50.5153 10.4493C50.5153 7.60974 50.0308 5.72575 49.0581 5.72575C48.0194 5.72964 47.1978 7.9205 47.1978 10.6513ZM0.455078 21.9591C0.455078 15.9265 4.43912 13.7783 8.8766 13.7783C10.7601 13.7783 12.5351 14.0891 13.5311 14.4931L13.6164 18.7039H13.1939L10.5896 14.629C10.0664 14.4193 9.50443 14.3299 8.93861 14.361C6.57841 14.361 5.37312 17.0957 5.41188 21.5745C5.45451 26.9312 6.38463 29.3707 8.55105 29.3707C8.99286 29.3862 9.43467 29.3124 9.84935 29.1532V23.4119L8.41928 22.5961V22.1067H15.3255V22.6194L13.9187 23.408V29.0716C12.2444 29.6659 10.4772 29.9689 8.69832 29.9612C3.65626 29.965 0.455078 27.6227 0.455078 21.9591ZM14.686 19.1428V18.7932L19.3173 17.9736L19.8288 18.0163V27.1915C19.8288 28.2986 20.3598 28.6365 21.2512 28.6365C21.8364 28.6443 22.3906 28.3841 22.7587 27.9257V19.6944L21.4876 19.1389V18.7816L26.1188 17.9619L26.5839 18.0047V28.5317L27.8357 29.0561V29.3901L23.2936 29.9495L22.8285 29.9068V28.5239H22.7006C21.7666 29.4367 20.5226 29.9612 19.2204 29.9922C16.9919 29.9922 15.9727 28.6754 15.9727 26.6749V19.6944L14.686 19.1428ZM43.8028 17.9542L44.1865 17.9969V21.4036H44.2912C44.7872 18.9253 45.8801 17.9969 47.2172 17.9969C47.411 17.9891 47.6047 18.0163 47.7869 18.0824V21.5318C47.473 21.4658 47.1513 21.4386 46.8335 21.4463C45.9654 21.423 45.1011 21.5978 44.3067 21.9513V28.6676L45.3647 29.2542V29.7164H39.3421V29.2581L40.4273 28.6676V19.5002L39.1561 19.1195V18.8088L43.8028 17.9542ZM55.4565 18.2416V14.6601L54.1854 14.2134V13.9298L58.8748 13.0675L59.3204 13.1335V28.5161L60.6149 28.9861V29.3824L55.9836 30L55.6232 29.9573V28.6909H55.5186C54.7163 29.5416 53.5963 30.0117 52.4298 29.9883C49.9029 29.9883 48.0582 28.0539 48.0582 24.1072C48.0582 19.9391 50.2013 17.8881 53.449 17.8881C54.1311 17.8532 54.821 17.9736 55.4565 18.2416ZM55.4565 28.0927V18.8826C55.1 18.5796 54.6388 18.4358 54.1737 18.4825C52.9181 18.5252 52.143 20.4247 52.143 23.8081C52.143 26.8497 52.6972 28.5511 54.3714 28.4928C54.7706 28.4967 55.1543 28.353 55.4565 28.0927ZM65.6918 17.9542L66.0949 17.9969V28.6676L67.1529 29.2542V29.7164H61.1303V29.2581L62.2116 28.6676V19.6711L60.9172 19.1584V18.801L65.6918 17.9542ZM66.1142 15.068C66.0794 16.1751 65.1609 17.0452 64.0563 17.0258C63.3277 17.053 62.6418 16.68 62.2697 16.0546C61.8977 15.4292 61.8977 14.6446 62.2697 14.0192C62.6418 13.3938 63.3277 13.0208 64.0563 13.048C65.1764 13.0325 66.0987 13.9337 66.1142 15.0563V15.068ZM79.6398 28.6676V19.574L78.3687 19.1273V18.6883L82.9999 17.826L83.465 17.8687V19.2322H83.5929C84.6935 18.2882 86.0926 17.7677 87.542 17.7638C89.5573 17.7638 90.4487 18.7194 90.4487 20.8598V28.6521L91.5299 29.2697V29.7203H85.4996V29.2619L86.5809 28.6715V21.0501C86.5809 19.8809 86.0693 19.4109 85.116 19.4109C84.5424 19.3953 83.9843 19.574 83.527 19.9197V28.6676L84.5889 29.2542V29.7203H78.5624V29.2619L79.6398 28.6676ZM73.0863 22.9535V21.4269C73.0863 19.1312 72.5864 18.3776 71.1679 18.3776C71.009 18.3815 70.8463 18.397 70.6874 18.4203L68.1644 21.8464H67.8079V18.6883C69.172 18.2183 70.6021 17.9697 72.0438 17.9503C75.1326 17.9503 76.9192 18.8088 76.9192 21.3997V28.8308L78.0237 29.1221V29.4134C77.3223 29.7747 76.5394 29.9534 75.7488 29.9378C74.2257 29.9378 73.4971 29.4367 73.1638 28.6016H73.0553C72.4081 29.4795 71.4935 29.9806 70.0518 29.9806C68.2187 29.9806 66.963 28.8308 66.963 26.8497C66.963 24.9268 68.1528 23.8858 70.5711 23.4235L73.0863 22.9535ZM73.0863 28.0927V23.4973L72.3151 23.5595C71.1059 23.6644 70.668 24.4374 70.668 26.1505C70.668 28.0073 71.2842 28.4889 72.1252 28.4889C72.4895 28.5239 72.8499 28.3763 73.0863 28.0927ZM33.9823 22.9535V21.4269C33.9823 19.1312 33.4823 18.3776 32.0639 18.3776C31.905 18.3815 31.7422 18.397 31.5833 18.4203L29.0603 21.8425H28.7077V18.6883C30.0719 18.2183 31.498 17.9697 32.9397 17.9503C36.0285 17.9503 37.8152 18.8088 37.8152 21.3997V28.8308L38.9197 29.1221V29.4134C38.2182 29.7747 37.4354 29.9534 36.6447 29.9378C35.1217 29.9378 34.3931 29.4367 34.0598 28.6016H33.9551C33.3079 29.4795 32.3933 29.9806 30.9516 29.9806C29.1185 29.9806 27.8628 28.8308 27.8628 26.8497C27.8628 24.9268 29.0526 23.8858 31.4709 23.4235L33.9823 22.9535ZM33.9823 28.0927V23.4973L33.211 23.5595C32.0019 23.6644 31.5639 24.4374 31.5639 26.1505C31.5639 28.0073 32.1801 28.4889 33.0211 28.4889C33.3854 28.5239 33.7458 28.3763 33.9823 28.0927Z" fill="#121212"/>
</g>
</g>
<defs>
<clipPath id="clip0_55_534">
<rect width="92" height="30" fill="white"/>
</clipPath>
</defs>
</svg>
