<svg width="150" height="24" viewBox="0 0 150 24" fill="none" xmlns="http://www.w3.org/2000/svg">
<mask id="mask0_55_521" style="mask-type:luminance" maskUnits="userSpaceOnUse" x="0" y="0" width="150" height="24">
<path d="M149.343 0H0.979492V24H149.343V0Z" fill="white"/>
</mask>
<g mask="url(#mask0_55_521)">
<path d="M20.9275 23.3878H13.9289V12.4409C13.9289 11.2899 13.0998 10.5552 12.1 10.5552C11.149 10.5552 10.0029 11.3143 10.0029 12.4409V23.3878H3.71148V5.95107L1.6875 4.53066C4.0041 3.77148 7.88135 2.10617 10.0029 0.955151V10.1143C10.832 9.08576 12.9047 7.76332 15.4895 7.76332C18.7815 7.76332 20.2203 9.91842 20.2203 12.4899V21.747C20.2203 21.9919 20.4397 22.5552 20.9275 23.3878ZM93.1077 23.3878H86.1092V12.4409C86.1092 11.2899 85.2801 10.5552 84.2803 10.5552C83.3293 10.5552 82.1588 11.3143 82.1588 12.4409V23.3878H75.8674V5.95107L73.8434 4.53066C76.16 3.77148 80.0373 2.10617 82.1588 0.955151V10.1143C82.9879 9.08576 85.0606 7.76332 87.6454 7.76332C90.9375 7.76332 92.3518 9.91842 92.3518 12.4899V21.747C92.3762 21.9919 92.62 22.5552 93.1077 23.3878ZM36.2414 20.7919V21.8939C34.8514 23.0694 33.3151 24.049 29.9988 24.049C24.7803 24.049 21.5858 20.596 21.5858 16.3348C21.5858 11.2654 24.8779 7.78781 29.6817 7.78781C34.4369 7.78781 36.2414 10.996 36.2414 15.0613H27.5358C27.9016 19.7388 30.5596 21.845 32.9494 21.845C34.1199 21.845 35.4123 21.4531 36.2414 20.7919ZM29.3647 14.1307C30.7547 14.1307 30.9254 13.7388 30.9254 12.5878C30.9254 11.7062 30.7547 9.52658 29.3647 9.52658C27.9748 9.52658 27.8041 11.7062 27.8041 12.5878C27.8041 13.7388 27.9748 14.1307 29.3647 14.1307ZM147.999 20.7674V21.8694C146.609 23.045 145.073 24.0246 141.756 24.0246C136.538 24.0246 133.343 20.5715 133.343 16.3103C133.343 11.2409 136.635 7.76332 141.439 7.76332C146.194 7.76332 147.999 10.9715 147.999 15.0368H139.293C139.659 19.7143 142.317 21.8205 144.707 21.8205C145.877 21.845 147.194 21.4531 147.999 20.7674ZM141.147 14.1307C142.537 14.1307 142.707 13.7388 142.707 12.5878C142.707 11.7062 142.537 9.52658 141.147 9.52658C139.757 9.52658 139.586 11.7062 139.586 12.5878C139.586 13.7388 139.732 14.1307 141.147 14.1307ZM53.9938 20.645L54.6766 20.7919C54.3596 22.0654 53.433 24.0246 50.458 24.0246C47.9707 24.0246 47.2635 22.5062 46.7514 20.9143C46.3125 22.3837 44.6055 24.0246 41.3623 24.0246C38.4604 24.0246 36.8754 22.7511 36.8754 20.3511C36.8754 17.6817 39.509 15.747 46.0686 13.8123V10.996C46.0686 9.55107 45.2883 9.03678 44.4104 9.03678C43.6301 9.03678 42.3865 9.86944 42.3865 11.1674C42.3865 11.7797 42.5084 12.2695 42.5815 12.8817C42.5815 13.6899 41.6549 14.8899 40.2406 14.8899C38.6799 14.8899 37.924 13.7633 37.924 12.4654C37.924 10.3348 39.9235 7.73883 45.1664 7.73883C50.6043 7.73883 52.3356 10.5796 52.3356 13.298V20.498C52.3356 20.9388 52.5063 21.3797 52.994 21.3797C53.4817 21.4286 53.7744 21.1837 53.9938 20.645ZM46.1174 20.1062V14.7429C43.9227 15.6246 43.1424 17.8041 43.1424 19.4694C43.1424 20.8164 43.5569 21.4286 44.5811 21.4286C45.4834 21.4531 46.1174 20.8899 46.1174 20.1062ZM62.992 23.3878H55.7739V5.95107L53.8475 4.53066C56.0422 3.77148 60.0901 2.10617 62.1141 0.955151V21.7225C62.0897 21.9674 62.3823 22.5307 62.992 23.3878ZM102.594 23.3878H95.3756V5.95107L93.4491 4.53066C95.6438 3.77148 99.6918 2.10617 101.716 0.955151V21.7225C101.691 21.9674 102.008 22.5307 102.594 23.3878ZM73.8434 21.5756V22.6776C72.7948 23.5592 71.0391 24.049 69.1614 24.049C66.0645 24.049 64.9672 21.7715 64.9672 19.8613V9.60005H63.4797L71.3561 2.79189V8.40005H73.8434V9.60005H71.3561V20.7184C71.3561 21.6001 71.8926 22.0164 72.5266 22.0164C72.8924 21.9919 73.5752 21.8205 73.8434 21.5756ZM108.617 7.54291C106.837 7.54291 105.398 6.07352 105.398 4.23679C105.398 2.40005 106.812 0.930664 108.617 0.930664C110.397 0.930664 111.836 2.40005 111.836 4.23679C111.836 6.07352 110.397 7.54291 108.617 7.54291ZM112.835 23.3878H105.447V12.3919L103.423 10.9715C105.739 10.2123 109.641 8.54699 111.762 7.39597V21.698C111.762 21.9919 112.128 22.5552 112.835 23.3878ZM132.856 23.3878H125.638V12.3919C125.638 11.2409 124.809 10.5062 123.809 10.5062C122.858 10.5062 121.712 11.2654 121.712 12.3919V23.3878H115.42V12.3919L113.396 10.9715C115.713 10.2123 119.419 8.54699 121.541 7.39597V10.4082C122.589 9.03679 124.589 7.68984 127.198 7.68984C130.49 7.68984 131.905 9.84495 131.905 12.4164V21.698C131.929 21.9674 132.246 22.5307 132.856 23.3878Z" fill="black"/>
</g>
</svg>
