<svg width="33" height="32" viewBox="0 0 33 32" fill="none" xmlns="http://www.w3.org/2000/svg">
<path opacity="0.2" d="M12.3999 30L14.3999 20L6.3999 17L20.3999 2L18.3999 12L26.3999 15L12.3999 30Z" fill="#036788"/>
<path d="M27.3737 14.7711C27.3358 14.6108 27.259 14.4624 27.1499 14.339C27.0409 14.2156 26.9031 14.121 26.7487 14.0636L19.5474 11.3624L21.3799 2.19612C21.4214 1.98315 21.3925 1.76246 21.2976 1.56735C21.2027 1.37224 21.0468 1.21331 20.8537 1.11453C20.6605 1.01574 20.4404 0.982477 20.2266 1.01974C20.0129 1.05701 19.8171 1.16279 19.6687 1.32112L5.66869 16.3211C5.55499 16.4409 5.47273 16.5871 5.42927 16.7464C5.38582 16.9058 5.38251 17.0734 5.41965 17.2344C5.45679 17.3953 5.53323 17.5446 5.64212 17.6688C5.75102 17.793 5.88898 17.8883 6.04369 17.9461L13.2474 20.6474L11.4199 29.8036C11.3784 30.0166 11.4073 30.2373 11.5023 30.4324C11.5972 30.6275 11.753 30.7864 11.9462 30.8852C12.1394 30.984 12.3595 31.0173 12.5732 30.98C12.787 30.9427 12.9828 30.837 13.1312 30.6786L27.1312 15.6786C27.2428 15.5588 27.3233 15.4134 27.3656 15.2551C27.4079 15.0969 27.4107 14.9307 27.3737 14.7711ZM14.0712 26.7499L15.3799 20.2024C15.4268 19.9702 15.3897 19.7289 15.2752 19.5215C15.1607 19.3141 14.9764 19.154 14.7549 19.0699L8.14994 16.5886L18.7274 5.25612L17.4199 11.8036C17.3731 12.0358 17.4102 12.2771 17.5247 12.4845C17.6391 12.6919 17.8235 12.852 18.0449 12.9361L24.6449 15.4111L14.0712 26.7499Z" fill="#036788"/>
</svg>
