<svg width="36" height="24" viewBox="0 0 36 24" fill="none" xmlns="http://www.w3.org/2000/svg">
<rect x="1" y="0.5" width="34" height="23" rx="3.5" fill="white" stroke="#D9D9D9"/>
<path fill-rule="evenodd" clip-rule="evenodd" d="M10.4 15.2412H8.84439C8.73794 15.2412 8.6474 15.3186 8.6308 15.4236L8.00163 19.4127C7.98913 19.4914 8.05009 19.5624 8.12993 19.5624H8.87259C8.97905 19.5624 9.06958 19.485 9.08618 19.3797L9.25588 18.3038C9.27225 18.1985 9.363 18.1212 9.46924 18.1212H9.96169C10.9864 18.1212 11.5778 17.6253 11.7323 16.6427C11.8019 16.2128 11.7353 15.875 11.5339 15.6384C11.3129 15.3787 10.9206 15.2412 10.4 15.2412ZM10.5795 16.6982C10.4944 17.2564 10.0679 17.2564 9.65553 17.2564H9.42078L9.58547 16.2138C9.59525 16.1509 9.64984 16.1045 9.71353 16.1045H9.82112C10.102 16.1045 10.3671 16.1045 10.504 16.2646C10.5856 16.3602 10.6106 16.5021 10.5795 16.6982ZM15.0501 16.6803H14.3052C14.2417 16.6803 14.1869 16.7267 14.1771 16.7897L14.1441 16.9981L14.092 16.9226C13.9308 16.6885 13.5712 16.6103 13.2122 16.6103C12.389 16.6103 11.6859 17.2337 11.549 18.1084C11.4778 18.5446 11.579 18.9617 11.8264 19.2527C12.0535 19.5202 12.3783 19.6316 12.7647 19.6316C13.428 19.6316 13.7959 19.2051 13.7959 19.2051L13.7626 19.4122C13.7501 19.4913 13.8111 19.5623 13.8904 19.5623H14.5615C14.6682 19.5623 14.7582 19.4849 14.7751 19.3796L15.1777 16.83C15.1904 16.7515 15.1297 16.6803 15.0501 16.6803ZM14.0117 18.1302C13.9398 18.5557 13.602 18.8414 13.1713 18.8414C12.955 18.8414 12.782 18.7721 12.6711 18.6406C12.561 18.5101 12.5191 18.3242 12.5541 18.1172C12.6213 17.6952 12.9647 17.4003 13.389 17.4003C13.6004 17.4003 13.7724 17.4705 13.8857 17.6031C13.9992 17.7371 14.0442 17.9241 14.0117 18.1302ZM18.269 16.6802H19.0176C19.1224 16.6802 19.1836 16.7977 19.124 16.8837L16.6342 20.4776C16.5939 20.5359 16.5275 20.5705 16.4565 20.5705H15.7089C15.6036 20.5705 15.5421 20.452 15.6031 20.3657L16.3783 19.2714L15.5538 16.8516C15.5253 16.7675 15.5874 16.6802 15.6769 16.6802H16.4124C16.508 16.6802 16.5923 16.7429 16.6199 16.8344L17.0575 18.2958L18.09 16.775C18.1304 16.7156 18.1976 16.6802 18.269 16.6802Z" fill="#253B80"/>
<path fill-rule="evenodd" clip-rule="evenodd" d="M26.3854 19.4129L27.0238 15.3509C27.0336 15.2878 27.0882 15.2414 27.1517 15.2412H27.8705C27.9498 15.2412 28.0108 15.3124 27.9982 15.3911L27.3687 19.38C27.3522 19.4852 27.2617 19.5626 27.1551 19.5626H26.5132C26.4338 19.5626 26.3729 19.4916 26.3854 19.4129ZM21.496 15.2414H19.9401C19.8339 15.2414 19.7434 15.3188 19.7267 15.4238L19.0976 19.4129C19.0851 19.4916 19.146 19.5626 19.2255 19.5626H20.0238C20.098 19.5626 20.1615 19.5085 20.1731 19.4348L20.3516 18.3041C20.368 18.1987 20.4587 18.1214 20.565 18.1214H21.0572C22.0821 18.1214 22.6734 17.6255 22.828 16.6429C22.8978 16.213 22.8308 15.8752 22.6295 15.6386C22.4085 15.3789 22.0166 15.2414 21.496 15.2414ZM21.6755 16.6984C21.5906 17.2566 21.1641 17.2566 20.7515 17.2566H20.517L20.6819 16.2141C20.6917 16.1511 20.7458 16.1047 20.8097 16.1047H20.9173C21.198 16.1047 21.4633 16.1047 21.6001 16.2648C21.6818 16.3604 21.7066 16.5023 21.6755 16.6984ZM26.1457 16.6805H25.4013C25.3373 16.6805 25.283 16.7269 25.2734 16.79L25.2404 16.9983L25.1881 16.9228C25.0269 16.6887 24.6675 16.6105 24.3085 16.6105C23.4853 16.6105 22.7824 17.234 22.6455 18.1086C22.5745 18.5448 22.6753 18.962 22.9228 19.2529C23.1502 19.5204 23.4746 19.6319 23.8611 19.6319C24.5243 19.6319 24.8921 19.2053 24.8921 19.2053L24.859 19.4124C24.8464 19.4915 24.9074 19.5625 24.9873 19.5625H25.658C25.7642 19.5625 25.8548 19.4851 25.8714 19.3799L26.2742 16.8302C26.2865 16.7517 26.2256 16.6805 26.1457 16.6805ZM25.1074 18.1304C25.0359 18.556 24.6977 18.8416 24.2669 18.8416C24.051 18.8416 23.8777 18.7723 23.7666 18.6408C23.6565 18.5103 23.6152 18.3244 23.6498 18.1174C23.7173 17.6954 24.0603 17.4005 24.4845 17.4005C24.6961 17.4005 24.868 17.4707 24.9814 17.6033C25.0953 17.7373 25.1403 17.9243 25.1074 18.1304Z" fill="#179BD7"/>
<path d="M16.157 13.8138L16.3483 12.5991L15.9223 12.5892H13.8881L15.3017 3.62534C15.3061 3.59828 15.3204 3.57305 15.3412 3.55513C15.3621 3.53722 15.3888 3.52734 15.4166 3.52734H18.8466C19.9853 3.52734 20.7711 3.7643 21.1814 4.232C21.3738 4.45141 21.4963 4.68068 21.5556 4.933C21.6177 5.19776 21.6188 5.51406 21.5581 5.89985L21.5537 5.92801V6.1752L21.7461 6.28418C21.9081 6.37011 22.0367 6.46848 22.1354 6.58111C22.3001 6.7687 22.4065 7.00712 22.4515 7.28978C22.4979 7.5805 22.4825 7.92643 22.4065 8.31807C22.3187 8.76859 22.1768 9.16096 21.9852 9.48202C21.8089 9.77785 21.5844 10.0232 21.3179 10.2134C21.0633 10.394 20.7609 10.5312 20.419 10.619C20.0877 10.7052 19.71 10.7488 19.2957 10.7488H19.0287C18.8379 10.7488 18.6524 10.8175 18.5069 10.9408C18.361 11.0665 18.2644 11.2383 18.2348 11.4263L18.2147 11.5357L17.8768 13.6767L17.8614 13.7553C17.8574 13.7802 17.8505 13.7927 17.8403 13.8011C17.8311 13.8087 17.818 13.8138 17.8051 13.8138H16.157Z" fill="#253B80"/>
<path d="M21.9281 5.95703C21.9179 6.02248 21.9062 6.0894 21.8931 6.15815C21.4407 8.48056 19.8932 9.28286 17.9166 9.28286H16.9103C16.6686 9.28286 16.465 9.45838 16.4273 9.6968L15.912 12.9645L15.7661 13.8907C15.7416 14.0473 15.8623 14.1884 16.0202 14.1884H17.8052C18.0165 14.1884 18.196 14.0348 18.2293 13.8264L18.2469 13.7357L18.583 11.603L18.6045 11.4861C18.6374 11.2769 18.8173 11.1234 19.0286 11.1234H19.2956C21.0249 11.1234 22.3787 10.4213 22.7743 8.38951C22.9396 7.54077 22.854 6.8321 22.4167 6.33367C22.2843 6.18338 22.1201 6.05868 21.9281 5.95703Z" fill="#179BD7"/>
<path d="M21.4548 5.7688C21.3858 5.74869 21.3144 5.7304 21.2412 5.71395C21.1678 5.69787 21.0924 5.6836 21.0149 5.67117C20.7436 5.62729 20.4463 5.60645 20.1278 5.60645H17.4393C17.3731 5.60645 17.3103 5.62143 17.254 5.6485C17.13 5.7081 17.0379 5.82549 17.0155 5.96919L16.4435 9.59159L16.4271 9.69727C16.4648 9.45884 16.6685 9.28332 16.9102 9.28332H17.9165C19.893 9.28332 21.4406 8.48066 21.8929 6.15862C21.9064 6.08987 21.9178 6.02295 21.928 5.9575C21.8136 5.89679 21.6896 5.84487 21.5561 5.80061C21.5232 5.78965 21.4892 5.77905 21.4548 5.7688Z" fill="#222D65"/>
<path d="M17.0156 5.96866C17.0379 5.82495 17.1301 5.70757 17.254 5.64833C17.3107 5.62126 17.3733 5.60627 17.4394 5.60627H20.1279C20.4464 5.60627 20.7437 5.62712 21.0149 5.671C21.0925 5.68343 21.1679 5.6977 21.2414 5.71378C21.3145 5.73024 21.3858 5.74853 21.4549 5.76863C21.4893 5.77887 21.5233 5.78947 21.5565 5.80008C21.69 5.84433 21.814 5.89662 21.9284 5.95696C22.0631 5.09871 21.9274 4.51437 21.4634 3.98523C20.9518 3.40271 20.0284 3.15332 18.8469 3.15332H15.4168C15.1755 3.15332 14.9697 3.32884 14.9323 3.56763L13.5037 12.6236C13.4755 12.8028 13.6137 12.9645 13.7943 12.9645H15.912L16.4437 9.59105L17.0156 5.96866Z" fill="#253B80"/>
</svg>
