<svg width="28" height="28" viewBox="0 0 28 28" fill="none" xmlns="http://www.w3.org/2000/svg">
<path d="M12.6875 7.875V17.5C12.6861 18.8919 12.1325 20.2265 11.1482 21.2107C10.164 22.195 8.82944 22.7486 7.4375 22.75C7.20544 22.75 6.98288 22.6578 6.81878 22.4937C6.65469 22.3296 6.5625 22.1071 6.5625 21.875C6.5625 21.6429 6.65469 21.4204 6.81878 21.2563C6.98288 21.0922 7.20544 21 7.4375 21C8.36576 21 9.256 20.6313 9.91237 19.9749C10.5688 19.3185 10.9375 18.4283 10.9375 17.5V16.625H4.375C3.91087 16.625 3.46575 16.4406 3.13756 16.1124C2.80937 15.7842 2.625 15.3391 2.625 14.875V7.875C2.625 7.41087 2.80937 6.96575 3.13756 6.63756C3.46575 6.30937 3.91087 6.125 4.375 6.125H10.9375C11.4016 6.125 11.8467 6.30937 12.1749 6.63756C12.5031 6.96575 12.6875 7.41087 12.6875 7.875ZM23.625 6.125H17.0625C16.5984 6.125 16.1533 6.30937 15.8251 6.63756C15.4969 6.96575 15.3125 7.41087 15.3125 7.875V14.875C15.3125 15.3391 15.4969 15.7842 15.8251 16.1124C16.1533 16.4406 16.5984 16.625 17.0625 16.625H23.625V17.5C23.625 18.4283 23.2563 19.3185 22.5999 19.9749C21.9435 20.6313 21.0533 21 20.125 21C19.8929 21 19.6704 21.0922 19.5063 21.2563C19.3422 21.4204 19.25 21.6429 19.25 21.875C19.25 22.1071 19.3422 22.3296 19.5063 22.4937C19.6704 22.6578 19.8929 22.75 20.125 22.75C21.5169 22.7486 22.8515 22.195 23.8357 21.2107C24.82 20.2265 25.3736 18.8919 25.375 17.5V7.875C25.375 7.41087 25.1906 6.96575 24.8624 6.63756C24.5342 6.30937 24.0891 6.125 23.625 6.125Z" fill="#036788"/>
</svg>
