<svg width="35" height="35" viewBox="0 0 35 35" fill="none" xmlns="http://www.w3.org/2000/svg">
<path d="M28.4375 5.46875H6.5625C5.98234 5.46875 5.42594 5.69922 5.0157 6.10945C4.60547 6.51969 4.375 7.07609 4.375 7.65625V15.6926C4.375 27.9439 14.741 32.0086 16.8164 32.699C17.2597 32.8498 17.7403 32.8498 18.1836 32.699C20.2617 32.0086 30.625 27.9439 30.625 15.6926V7.65625C30.625 7.07609 30.3945 6.51969 29.9843 6.10945C29.5741 5.69922 29.0177 5.46875 28.4375 5.46875ZM28.4375 15.6939C28.4375 26.4154 19.3662 29.9975 17.5 30.6209C15.6502 30.0043 6.5625 26.425 6.5625 15.6939V7.65625H28.4375V15.6939ZM11.2574 19.3676C11.0522 19.1623 10.9369 18.884 10.9369 18.5938C10.9369 18.3035 11.0522 18.0252 11.2574 17.8199C11.4627 17.6147 11.741 17.4994 12.0312 17.4994C12.3215 17.4994 12.5998 17.6147 12.8051 17.8199L15.3125 20.3273L22.1949 13.4449C22.2965 13.3433 22.4172 13.2627 22.55 13.2077C22.6827 13.1527 22.825 13.1244 22.9688 13.1244C23.1125 13.1244 23.2548 13.1527 23.3875 13.2077C23.5203 13.2627 23.641 13.3433 23.7426 13.4449C23.8442 13.5465 23.9248 13.6672 23.9798 13.8C24.0348 13.9327 24.0631 14.075 24.0631 14.2188C24.0631 14.3625 24.0348 14.5048 23.9798 14.6375C23.9248 14.7703 23.8442 14.891 23.7426 14.9926L16.0863 22.6488C15.9847 22.7505 15.8641 22.8312 15.7313 22.8862C15.5986 22.9413 15.4562 22.9696 15.3125 22.9696C15.1688 22.9696 15.0264 22.9413 14.8937 22.8862C14.7609 22.8312 14.6403 22.7505 14.5387 22.6488L11.2574 19.3676Z" fill="#60CEEC"/>
</svg>
