<svg width="27" height="23" viewBox="0 0 27 23" fill="none" xmlns="http://www.w3.org/2000/svg">
<path d="M19.1 5.5C19.1 4.41221 18.7774 3.34884 18.1731 2.44437C17.5687 1.5399 16.7097 0.834947 15.7047 0.418665C14.6997 0.00238308 13.5939 -0.106535 12.527 0.105683C11.4601 0.317902 10.4801 0.841726 9.71089 1.61092C8.9417 2.3801 8.41788 3.36011 8.20566 4.42701C7.99344 5.4939 8.10236 6.59977 8.51864 7.60476C8.93492 8.60976 9.63987 9.46874 10.5443 10.0731C11.4488 10.6774 12.5122 11 13.6 11C15.0582 10.9983 16.4561 10.4184 17.4872 9.38726C18.5183 8.35617 19.0983 6.95819 19.1 5.5ZM13.6 9C12.9077 9 12.2311 8.79473 11.6555 8.41015C11.0799 8.02556 10.6313 7.47894 10.3664 6.83939C10.1015 6.19985 10.0322 5.49612 10.1672 4.81719C10.3023 4.13825 10.6356 3.51461 11.1251 3.02513C11.6146 2.53565 12.2382 2.2023 12.9172 2.06725C13.5961 1.93221 14.2998 2.00152 14.9394 2.26642C15.5789 2.53133 16.1255 2.97993 16.5101 3.55551C16.8947 4.13108 17.1 4.80777 17.1 5.5C17.1 6.42826 16.7312 7.3185 16.0749 7.97488C15.4185 8.63125 14.5282 9 13.6 9ZM21.1 12C20.0122 12 18.9488 12.3226 18.0443 12.9269C17.1399 13.5313 16.4349 14.3903 16.0186 15.3952C15.6024 16.4002 15.4934 17.5061 15.7057 18.573C15.9179 19.6399 16.4417 20.6199 17.2109 21.3891C17.9801 22.1583 18.9601 22.6821 20.027 22.8943C21.0939 23.1065 22.1997 22.9976 23.2047 22.5813C24.2097 22.1651 25.0687 21.4601 25.6731 20.5556C26.2774 19.6512 26.6 18.5878 26.6 17.5C26.5983 16.0418 26.0183 14.6438 24.9872 13.6127C23.9561 12.5817 22.5582 12.0017 21.1 12ZM21.1 21C20.4077 21 19.7311 20.7947 19.1555 20.4101C18.5799 20.0256 18.1313 19.4789 17.8664 18.8394C17.6015 18.1999 17.5322 17.4961 17.6672 16.8172C17.8023 16.1383 18.1356 15.5146 18.6251 15.0251C19.1146 14.5356 19.7382 14.2023 20.4172 14.0673C21.0961 13.9322 21.7998 14.0015 22.4394 14.2664C23.0789 14.5313 23.6255 14.9799 24.0101 15.5555C24.3947 16.1311 24.6 16.8078 24.6 17.5C24.6 18.4283 24.2312 19.3185 23.5749 19.9749C22.9185 20.6313 22.0282 21 21.1 21ZM6.09998 12C5.01218 12 3.94881 12.3226 3.04434 12.9269C2.13987 13.5313 1.43492 14.3903 1.01864 15.3952C0.602359 16.4002 0.49344 17.5061 0.705659 18.573C0.917878 19.6399 1.4417 20.6199 2.21089 21.3891C2.98008 22.1583 3.96009 22.6821 5.02698 22.8943C6.09388 23.1065 7.19974 22.9976 8.20474 22.5813C9.20973 22.1651 10.0687 21.4601 10.6731 20.5556C11.2774 19.6512 11.6 18.5878 11.6 17.5C11.5983 16.0418 11.0183 14.6438 9.98724 13.6127C8.95615 12.5817 7.55816 12.0017 6.09998 12ZM6.09998 21C5.40774 21 4.73105 20.7947 4.15548 20.4101C3.57991 20.0256 3.13131 19.4789 2.8664 18.8394C2.60149 18.1999 2.53218 17.4961 2.66723 16.8172C2.80228 16.1383 3.13562 15.5146 3.6251 15.0251C4.11459 14.5356 4.73823 14.2023 5.41716 14.0673C6.0961 13.9322 6.79983 14.0015 7.43937 14.2664C8.07891 14.5313 8.62554 14.9799 9.01012 15.5555C9.39471 16.1311 9.59998 16.8078 9.59998 17.5C9.59998 18.4283 9.23123 19.3185 8.57485 19.9749C7.91847 20.6313 7.02824 21 6.09998 21Z" fill="#036788"/>
</svg>
