<svg width="131" height="24" viewBox="0 0 131 24" fill="none" xmlns="http://www.w3.org/2000/svg">
<g clip-path="url(#clip0_55_527)">
<path d="M12.1346 24C18.6465 24 23.9254 18.6274 23.9254 12C23.9254 5.37258 18.6465 0 12.1346 0C5.62269 0 0.34375 5.37258 0.34375 12C0.34375 18.6274 5.62269 24 12.1346 24Z" fill="#1EA3FF"/>
<path d="M29.1426 13.8398V5.31026H32.8811V12.7109C32.8811 14.1743 33.0455 15.5959 34.9353 15.5959C36.8251 15.5959 36.9894 14.1743 36.9894 12.7109V5.31026H40.728V13.798C40.728 17.1012 38.6739 18.8991 34.9353 18.8991C31.1146 18.9409 29.1426 17.1012 29.1426 13.8398ZM41.714 16.9757L43.5217 14.4252C44.179 15.2614 45.3293 15.9722 46.6029 15.9722C47.5889 15.9722 48.1641 15.5541 48.1641 14.7597C48.1641 13.8398 47.3424 13.5471 45.9045 13.129C44.0147 12.5437 42.3302 11.5402 42.3302 9.24057C42.3302 6.73186 44.3844 5.01758 47.2602 5.01758C49.2733 5.01758 50.7523 5.64475 51.7383 6.56461L50.0539 9.11514C49.5198 8.48796 48.616 7.94441 47.4656 7.94441C46.4796 7.94441 46.0688 8.36252 46.0688 8.86427C46.0688 9.7005 47.0548 9.90956 48.123 10.2858C50.2593 10.9548 51.9026 11.9583 51.9026 14.4252C51.9026 16.9757 50.095 18.8991 46.8083 18.8991C44.3844 18.9409 42.5357 17.8956 41.714 16.9757Z" fill="#00080A"/>
<path d="M56.9143 5.30957H61.0226L65.9115 18.6475H62.0086L61.3923 16.7242H56.4624L55.8461 18.6475H52.0254C52.0665 18.6475 56.9143 5.30957 56.9143 5.30957ZM60.4474 13.7137L59.4203 10.4942C59.2149 9.86706 59.0506 9.07263 58.9684 8.48727H58.8452C58.763 9.07263 58.5987 9.86706 58.3933 10.4942L57.3662 13.7137H60.4474Z" fill="#00080A"/>
<path d="M71.3354 8.40354H68.0898V5.30946H78.3195V8.40354H75.074V18.6474H71.3354V8.40354ZM78.566 11.9993C78.566 8.69622 80.8667 5.05859 85.7556 5.05859C90.6445 5.05859 92.9451 8.73804 92.9451 11.9993C92.9451 15.2607 90.6445 18.8983 85.7556 18.8983C80.8667 18.9401 78.566 15.3025 78.566 11.9993ZM89.1244 11.9993C89.1244 9.61608 87.6043 8.36173 85.7556 8.36173C83.9479 8.36173 82.4278 9.61608 82.4278 11.9993C82.4278 14.3826 83.9479 15.5952 85.7556 15.5952C87.5632 15.5952 89.1244 14.3826 89.1244 11.9993ZM94.3008 5.30946H99.1487C103.791 5.30946 106.42 7.81817 106.42 11.9993C106.42 16.0969 103.709 18.6892 99.1487 18.6892H94.3008V5.30946ZM98.0805 15.5952H98.9022C101.326 15.5952 102.6 14.4244 102.6 11.9993C102.6 9.57427 101.326 8.40354 98.9022 8.40354H98.0805V15.5952Z" fill="#00080A"/>
<path d="M110.775 5.30957H114.883L119.772 18.6475H115.869L115.253 16.7242H110.323L109.706 18.6475H105.886C105.927 18.6475 110.775 5.30957 110.775 5.30957ZM114.308 13.7137L113.281 10.4942C113.075 9.86706 112.911 9.07263 112.829 8.48727H112.706C112.623 9.07263 112.459 9.86706 112.254 10.4942L111.227 13.7137H114.308Z" fill="#00080A"/>
<path d="M121.58 13.923L116.691 5.35156H120.8L122.566 8.65469C122.936 9.36549 123.47 10.4108 123.593 11.1216H123.676C123.799 10.4108 124.292 9.36549 124.703 8.65469L126.469 5.35156H130.454L125.565 13.923V18.6896H121.621V13.923H121.58Z" fill="#00080A"/>
</g>
<defs>
<clipPath id="clip0_55_527">
<rect width="131" height="24" fill="white"/>
</clipPath>
</defs>
</svg>
